<?xml version="1.0" encoding="iso-8859-1"?>
<!-- Generator: Adobe Illustrator 16.0.0, SVG Export Plug-In . SVG Version: 6.00 Build 0)  -->
<!DOCTYPE svg PUBLIC "-//W3C//DTD SVG 1.1//EN" "http://www.w3.org/Graphics/SVG/1.1/DTD/svg11.dtd">
<svg xmlns="http://www.w3.org/2000/svg" xmlns:xlink="http://www.w3.org/1999/xlink" version="1.1" id="Capa_1" x="0px" y="0px" width="512px" height="512px" viewBox="0 0 468.171 468.171" style="enable-background:new 0 0 468.171 468.171;" xml:space="preserve">
<g>
	<g>
		<polygon points="223.346,456.475 235.035,468.171 235.035,126.102 223.346,126.102   " fill="#FFFFFF"/>
		<path d="M333.107,201.406c-0.221-0.222-0.321-0.499-0.484-0.741c-0.211-0.298-0.454-0.572-0.602-0.902    c-0.137-0.324-0.18-0.659-0.264-0.994c-0.074-0.335-0.185-0.659-0.2-1.005c-0.011-0.346,0.084-0.681,0.137-1.021    c0.042-0.34,0.074-0.675,0.185-1.005c0.121-0.334,0.343-0.619,0.543-0.928c0.158-0.259,0.243-0.546,0.443-0.778l23.524-26.815    v-41.742c-2.884,0.377-5.821,0.635-8.807,0.635H245.832v231.881c57.939-15.304,102.885-67.638,112.251-131.37    c0.021-0.142,0.116-0.243,0.132-0.379c-0.264-0.183-0.564-0.296-0.797-0.533L333.107,201.406z" fill="#FFFFFF"/>
		<path d="M347.588,0.606H180.621c18.895,12.126,31.477,33.273,31.477,57.346s-12.583,45.22-31.477,57.349h166.968    c31.608,0,57.338-25.724,57.338-57.349C404.931,26.336,379.208,0.606,347.588,0.606z M361.236,34.054H264.71    c-2.984,0-5.399-2.421-5.399-5.4s2.415-5.4,5.399-5.4h96.525c2.984,0,5.4,2.42,5.4,5.4S364.22,34.054,361.236,34.054z" fill="#FFFFFF"/>
		<path d="M86.848,63.353c2.729,29.102,27.298,51.949,57.096,51.949c29.808,0,54.366-22.853,57.093-51.954    c-0.098,0-0.177,0.005-0.269,0.005H86.848z" fill="#FFFFFF"/>
		<path d="M151.379,125.674c-2.441,0.267-4.915,0.428-7.43,0.428c-37.579,0-68.149-30.57-68.149-68.149c0-2.979,2.421-5.4,5.4-5.4    h119.583c0.092,0,0.174,0,0.269,0.005c-2.726-29.099-27.29-51.951-57.093-51.951c-0.859,0-1.647-0.245-2.365-0.606    c-0.73,0.356-1.505,0.606-2.365,0.606c-39.955,0-72.457,32.503-72.457,72.452v93.943l26.763,26.763    c2.109,2.109,2.109,5.524,0,7.636l-29.597,29.595c-0.2,0.206-0.467,0.293-0.693,0.461    c13.387,76.196,74.77,131.213,147.016,131.213c0.772,0,1.529-0.047,2.296-0.058V126.102h-59.081    C152.735,126.102,152.023,125.951,151.379,125.674z" fill="#FFFFFF"/>
	</g>
</g>
<g>
</g>
<g>
</g>
<g>
</g>
<g>
</g>
<g>
</g>
<g>
</g>
<g>
</g>
<g>
</g>
<g>
</g>
<g>
</g>
<g>
</g>
<g>
</g>
<g>
</g>
<g>
</g>
<g>
</g>
</svg>
